<svg width="25" height="25" viewBox="0 0 25 25" fill="none" xmlns="http://www.w3.org/2000/svg">
<path d="M12.5 25C24.9036 25 25 19.4036 25 12.5C25 5.59635 24.9036 0 12.5 0C0.0963539 0 0 5.59635 0 12.5C0 19.4036 0.0963539 25 12.5 25Z" fill="#8247E5" fill-opacity="0.2"/>
<path d="M15.8087 10.4852C15.5444 10.3267 15.2009 10.3267 14.9101 10.4852L12.8488 11.7008L11.4482 12.4936L9.38691 13.7093C9.12265 13.8679 8.77904 13.8679 8.48838 13.7093L6.8499 12.758C6.58563 12.5994 6.40063 12.3087 6.40063 11.9916V10.1153C6.40063 9.79812 6.5592 9.50739 6.8499 9.34886L8.46191 8.4239C8.72625 8.26534 9.06978 8.26534 9.36044 8.4239L10.9725 9.34886C11.2368 9.50739 11.4218 9.79812 11.4218 10.1153V11.3309L12.8224 10.5117V9.29599C12.8224 8.97886 12.6638 8.68817 12.3732 8.52961L9.38691 6.78542C9.12265 6.62686 8.77904 6.62686 8.48838 6.78542L5.44926 8.52961C5.15856 8.68817 5 8.97886 5 9.29599V12.8108C5 13.1279 5.15856 13.4186 5.44926 13.5772L8.48838 15.3214C8.75265 15.48 9.09618 15.48 9.38691 15.3214L11.4482 14.1322L12.8488 13.3129L14.9101 12.1237C15.1744 11.9651 15.5179 11.9651 15.8087 12.1237L17.4207 13.0486C17.685 13.2072 17.87 13.4979 17.87 13.815V15.6914C17.87 16.0085 17.7114 16.2991 17.4207 16.4578L15.8087 17.4091C15.5444 17.5677 15.2009 17.5677 14.9101 17.4091L13.2981 16.4841C13.0338 16.3256 12.8488 16.0349 12.8488 15.7178V14.5021L11.4482 15.3214V16.537C11.4482 16.8542 11.6068 17.1448 11.8975 17.3034L14.9365 19.0476C15.2009 19.2061 15.5444 19.2061 15.8351 19.0476L18.8742 17.3034C19.1385 17.1448 19.3235 16.8542 19.3235 16.537V13.0222C19.3235 12.7051 19.1649 12.4144 18.8742 12.2558L15.8087 10.4852Z" fill="#8247E5"/>
</svg>
