<svg width="25" height="25" viewBox="0 0 25 25" fill="none" xmlns="http://www.w3.org/2000/svg">
<path d="M12.5 25C24.9036 25 25 19.4036 25 12.5C25 5.59635 24.9036 0 12.5 0C0.0963539 0 0 5.59635 0 12.5C0 19.4036 0.0963539 25 12.5 25Z" fill="#677BDE" fill-opacity="0.2"/>
<path d="M12.5879 18.9387L9.32756 13.6363C9.18047 13.3971 9.48638 13.1392 9.71429 13.3103L12.6522 15.5155C12.7469 15.5866 12.8799 15.5866 12.9747 15.5155L15.9126 13.3103C16.1405 13.1392 16.4464 13.3971 16.2993 13.6363L13.0389 18.9387C12.9376 19.1035 12.6893 19.1035 12.5879 18.9387Z" fill="#677BDE"/>
<path d="M9.19653 11.3208L12.5777 5.13459C12.6766 4.95378 12.9467 4.95551 13.043 5.13758L16.4297 11.5404C16.4908 11.6559 16.4506 11.7971 16.3367 11.8666L12.9607 13.9254C12.8715 13.9798 12.757 13.9774 12.6704 13.9193L9.27842 11.6438C9.17034 11.5713 9.13525 11.4329 9.19653 11.3208Z" fill="#677BDE"/>
</svg>
