<svg width="25" height="25" viewBox="0 0 25 25" fill="none" xmlns="http://www.w3.org/2000/svg">
<path d="M12.5 25C24.9036 25 25 19.4036 25 12.5C25 5.59635 24.9036 0 12.5 0C0.0963539 0 0 5.59635 0 12.5C0 19.4036 0.0963539 25 12.5 25Z" fill="#F1BB03" fill-opacity="0.2"/>
<path d="M10.0505 11.6294L12.7291 8.95074L15.4091 11.6307L16.9677 10.0721L12.7291 5.8335L8.49183 10.0707L10.0505 11.6294ZM5.83252 12.73L7.39114 11.1714L8.94976 12.73L7.39114 14.2887L5.83252 12.73ZM10.0505 13.8307L12.7291 16.5094L15.4091 13.8294L16.9677 15.3873L12.7291 19.6266L8.49183 15.3894L8.48976 15.3873L10.0505 13.8307ZM16.5084 12.73L18.067 11.1714L19.6256 12.73L18.067 14.2887L16.5084 12.73ZM14.3098 12.7287H14.3111V12.73L12.7291 14.3121L11.1491 12.7328L11.1463 12.73L11.1491 12.728L11.4256 12.4507L11.5601 12.3163L12.7291 11.148L14.3105 12.7294L14.3098 12.7287Z" fill="#F1BB03"/>
</svg>
