<svg width="120" height="120" viewBox="0 0 120 120" fill="none" xmlns="http://www.w3.org/2000/svg">
<path d="M3.59333 41.0767C11.3767 62.78 5.48 81.7134 9.23 92.1734C12.98 102.633 26.8733 122.44 74.9833 105.183C123.093 87.9267 119.557 55.85 115.43 44.3467C96.11 -9.51663 -10.1933 2.64003 3.59333 41.0767Z" fill="#6F19F3" fill-opacity="0.1"/>
<path d="M90.8333 97.5H29.1667C25.4833 97.5 22.5 94.5167 22.5 90.8333V29.1667C22.5 25.4833 25.4833 22.5 29.1667 22.5H90.8333C94.5167 22.5 97.5 25.4833 97.5 29.1667V90.8333C97.5 94.5167 94.5167 97.5 90.8333 97.5Z" fill="#6E4DB1"/>
<path d="M60 83.3334C61.8409 83.3334 63.3333 81.841 63.3333 80.0001C63.3333 78.1591 61.8409 76.6667 60 76.6667C58.159 76.6667 56.6667 78.1591 56.6667 80.0001C56.6667 81.841 58.159 83.3334 60 83.3334Z" fill="#F3F3F1"/>
<path d="M30 90.8333V29.1667C30 25.4833 32.9833 22.5 36.6667 22.5H29.1667C25.4833 22.5 22.5 25.4833 22.5 29.1667V90.8333C22.5 94.5167 25.4833 97.5 29.1667 97.5H36.6667C32.9833 97.5 30 94.5167 30 90.8333Z" fill="#A472F2" fill-opacity="0.3"/>
<path d="M103.229 15L107.943 10.286L110.3 12.643L105.586 17.357L103.229 15Z" fill="#A4AFC1" fill-opacity="0.6"/>
<path d="M89.6861 12.0649L92.0431 9.70792L96.7572 14.422L94.4002 16.779L89.6861 12.0649Z" fill="#A4AFC1" fill-opacity="0.6"/>
<path d="M103.237 25.625L105.594 23.268L110.308 27.982L107.951 30.339L103.237 25.625Z" fill="#A4AFC1" fill-opacity="0.6"/>
<path d="M60 85C57.2433 85 55 82.7567 55 80C55 77.2433 57.2433 75 60 75C62.7567 75 65 77.2433 65 80C65 82.7567 62.7567 85 60 85ZM60 78.3333C59.08 78.3333 58.3333 79.0833 58.3333 80C58.3333 80.9167 59.08 81.6667 60 81.6667C60.92 81.6667 61.6667 80.9167 61.6667 80C61.6667 79.0833 60.92 78.3333 60 78.3333Z" fill="black" fill-opacity="0.8"/>
<path d="M57.5 39.1667H62.5V67.5001H57.5V39.1667Z" fill="black" fill-opacity="0.8"/>
<path d="M90.8333 100H29.1667C24.11 100 20 95.89 20 90.8333V29.1667C20 24.11 24.11 20 29.1667 20H90.8333C95.89 20 100 24.11 100 29.1667V90.8333C100 95.89 95.89 100 90.8333 100ZM29.1667 25C26.87 25 25 26.87 25 29.1667V90.8333C25 93.13 26.87 95 29.1667 95H90.8333C93.13 95 95 93.13 95 90.8333V29.1667C95 26.87 93.13 25 90.8333 25H29.1667Z" fill="black" fill-opacity="0.8"/>
<path d="M6.66666 95H113.333V100H6.66666V95Z" fill="black" fill-opacity="0.8"/>
</svg>
